<svg height="128" viewBox="0 0 64 64" width="128" xmlns="http://www.w3.org/2000/svg"><path d="m17 19h2v2h-2z"/><path d="m27 19h2v2h-2z"/><path d="m27 25h-2a2 2 0 0 1 -4 0h-2a4 4 0 0 0 8 0z"/><path d="m61 34h-26a1 1 0 0 0 -1 1v3.14l-6-1.875v-3.471a10.992 10.992 0 0 0 6-9.794v-1a2.99 2.99 0 0 0 1.407-5.633 2.983 2.983 0 0 0 .158-.262l.1-.2a2.981 2.981 0 0 0 -1.665-4.156v-5.109a3.011 3.011 0 0 0 -2.413-2.94l-6.828-1.372a9.274 9.274 0 0 0 -3.526 0l-6.821 1.372a3.011 3.011 0 0 0 -2.412 2.94v5.109a2.981 2.981 0 0 0 -1.667 4.151l.1.2a2.888 2.888 0 0 0 .156.263 2.99 2.99 0 0 0 1.411 5.637v1a11 11 0 0 0 6 9.786v3.479l-8.277 2.59a10.94 10.94 0 0 0 -7.723 10.495v11.65a1 1 0 0 0 1 1h58a1 1 0 0 0 1-1v-26a1 1 0 0 0 -1-1zm-1 6h-8v-4h8zm-14-4h4v5.131l-1.445-.963a1 1 0 0 0 -1.11 0l-1.445.963zm-2 0v4h-8v-4zm-10 24h-14.586l14.586-14.586zm0-17.414-17.414 17.414h-3.172l15.414-15.414.778.333a1 1 0 0 0 1.386-1.043l-.162-1.292 2.544-2.544.626.2zm-3.6-3.477.825.257-.7.7zm-2.1-.656.493 3.941-4.04-1.731 2.528-2.528zm-15-22.705a1 1 0 0 1 -1.072-.537l-.1-.2a1 1 0 0 1 .742-1.436l8.767-1.349a9.062 9.062 0 0 1 2.738 0l8.767 1.349a1 1 0 0 1 .742 1.436l-.1.2a1 1 0 0 1 -1.073.537l-8.101-1.472a8.98 8.98 0 0 0 -3.22 0zm20.7 4.252v-2a1 1 0 0 1 0 2zm-2-13.36v4.733l-2.576-.4 1.091-5.453.677.136a1.007 1.007 0 0 1 .808.984zm-10.381-2.348a7.269 7.269 0 0 1 2.754 0l4.181.839-1.108 5.542-2.774-.426a10.963 10.963 0 0 0 -3.344 0l-2.774.426-1.108-5.543zm-6.812 1.369.678-.137 1.091 5.453-2.576.4v-4.737a1 1 0 0 1 .807-.979zm-3.807 13.339a1 1 0 0 1 1-1v2a1 1 0 0 1 -1-1zm3 4v-5.348l7.748-1.408a6.977 6.977 0 0 1 2.5 0l7.752 1.409v5.347a9 9 0 0 1 -18 0zm9 11a11.04 11.04 0 0 0 3-.421v3.007l-3 3-3-3v-3.012a10.966 10.966 0 0 0 3 .426zm-4.279 4.135 2.528 2.528-4.04 1.731.493-3.94zm-14.721 11.215a8.948 8.948 0 0 1 6.319-8.585l5.281-1.654-.6 4.765a1 1 0 0 0 1.386 1.043l6.614-2.831 3.849 1.649-15.849 15.849v-10.586h-2v11h-5zm32 10.65v-18h8v1a1 1 0 0 0 1.555.832l2.445-1.632 2.445 1.63a1 1 0 0 0 1.555-.83v-1h8v18z"/><path d="m50 54h2v2h-2z"/><path d="m54 54h4v2h-4z"/></svg>
